<svg width="25" height="25" viewBox="0 0 25 25" fill="none" xmlns="http://www.w3.org/2000/svg">
<path d="M25 11.6071C25 18.019 19.4046 23.2143 12.5007 23.2143C10.6893 23.2143 8.97065 22.8571 7.41801 22.2154C6.83699 22.7009 5.88978 23.365 4.7668 23.923C3.59499 24.5033 2.18394 25 0.782653 25C0.465288 25 0.182102 24.7824 0.0600383 24.4475C-0.062025 24.1127 0.00633044 23.7333 0.226044 23.4766L0.240692 23.4598C0.255339 23.4431 0.27487 23.4208 0.304165 23.3817C0.357873 23.3147 0.440876 23.2087 0.543409 23.0636C0.743592 22.7846 1.01213 22.3717 1.28555 21.8583C1.77381 20.9319 2.23765 19.7154 2.33041 18.3482C0.865656 16.4509 0.00144792 14.1239 0.00144792 11.6071C0.00144792 5.19531 5.59683 0 12.5007 0C19.4046 0 25 5.19531 25 11.6071Z" fill="#6CC1D9"/>
</svg>
