<svg width="25" height="18" viewBox="0 0 25 18" fill="none" xmlns="http://www.w3.org/2000/svg">
<g clip-path="url(#clip0_1_9)">
<path d="M21.25 4.5C21.25 3.30653 20.7232 2.16193 19.7855 1.31802C18.8479 0.474106 17.5761 0 16.25 0C14.9239 0 13.6521 0.474106 12.7145 1.31802C11.7768 2.16193 11.25 3.30653 11.25 4.5C11.25 5.69347 11.7768 6.83807 12.7145 7.68198C13.6521 8.52589 14.9239 9 16.25 9C17.5761 9 18.8479 8.52589 19.7855 7.68198C20.7232 6.83807 21.25 5.69347 21.25 4.5ZM25 16.9559C25 13.493 21.8828 10.6875 18.0352 10.6875H14.4648C10.6172 10.6875 7.5 13.493 7.5 16.9559C7.5 17.5324 8.01953 18 8.66016 18H23.8398C24.4805 18 25 17.5324 25 16.9559ZM1.19922 18H6.58594C6.375 17.6695 6.25 17.2863 6.25 16.875V16.5938C6.25 14.4598 7.30859 12.5438 8.97656 11.257C8.88281 11.2535 8.79297 11.25 8.69922 11.25H6.30078C2.82031 11.25 0 13.7883 0 16.9207C0 17.5184 0.539063 18 1.19922 18ZM8.125 9C9.33594 9 10.4297 8.55703 11.2227 7.84336C10.4531 6.9082 10 5.75156 10 4.5C10 3.55781 10.2578 2.66836 10.7148 1.88789C9.98828 1.40977 9.09375 1.125 8.125 1.125C5.70703 1.125 3.75 2.88633 3.75 5.0625C3.75 7.23867 5.70703 9 8.125 9Z" fill="#6CC1D9"/>
</g>
<defs>
<clipPath id="clip0_1_9">
<rect width="25" height="18" fill="white" transform="matrix(-1 0 0 1 25 0)"/>
</clipPath>
</defs>
</svg>
